<svg xmlns="http://www.w3.org/2000/svg" width="196" height="40">
    <defs>
        <linearGradient id="a" x1="39.837%" x2="62.964%" y1="-34.462%" y2="143.873%">
            <stop offset="0%" stop-color="#00C7B7"/>
            <stop offset="100%" stop-color="#4D9ABF"/>
        </linearGradient>
        <radialGradient id="b" cy="0%" r="100.11%" fx="50%" fy="0%" gradientTransform="matrix(0 .9989 -1.152 0 .5 -.5)">
            <stop offset="0%" stop-color="#20C6B7"/>
            <stop offset="100%" stop-color="#4D9ABF"/>
        </radialGradient>
    </defs>
    <g fill="none" fill-rule="evenodd">
        <path fill="#0E1E25" d="M59.13 12.494l.097 1.71c1.093-1.322 2.529-1.983 4.306-1.983 3.08 0 4.649 1.763 4.703 5.29v9.776h-3.322v-9.584c0-.939-.203-1.634-.608-2.085-.406-.451-1.069-.677-1.99-.677-1.34 0-2.337.607-2.994 1.819v10.527H56V12.494h3.13zm19.005 15.067c-2.106 0-3.812-.664-5.12-1.99-1.308-1.326-1.962-3.092-1.962-5.298v-.41c0-1.476.285-2.796.854-3.958.57-1.162 1.37-2.066 2.4-2.714 1.03-.647 2.178-.97 3.445-.97 2.014 0 3.57.642 4.669 1.927 1.098 1.286 1.647 3.104 1.647 5.456v1.34h-9.666c.1 1.22.508 2.187 1.224 2.898.715.71 1.616 1.066 2.7 1.066 1.522 0 2.762-.615 3.719-1.846l1.79 1.71a5.981 5.981 0 0 1-2.371 2.057c-.99.488-2.099.732-3.33.732zm-.397-12.674c-.911 0-1.647.319-2.208.957-.56.638-.918 1.526-1.073 2.666h6.33v-.246c-.073-1.112-.369-1.953-.889-2.523-.52-.57-1.24-.854-2.16-.854zm13.07-5.989v3.596h2.612v2.461h-2.611v8.258c0 .565.111.973.335 1.224.223.25.622.375 1.196.375.383 0 .77-.045 1.162-.136v2.57a8.182 8.182 0 0 1-2.188.315c-2.552 0-3.828-1.409-3.828-4.225v-8.38h-2.433v-2.462h2.433V8.898h3.323zm8.682 18.39h-3.322v-21h3.322v21zm7.15 0h-3.322V12.493h3.323v14.793zm-3.527-18.636c0-.51.162-.934.486-1.271.323-.337.786-.506 1.387-.506.602 0 1.067.169 1.395.506.328.337.492.76.492 1.271 0 .502-.164.919-.492 1.251-.328.333-.793.5-1.395.5-.601 0-1.064-.167-1.387-.5-.324-.332-.486-.75-.486-1.25zm8.313 18.635V14.955h-2.256v-2.46h2.256V11.14c0-1.641.456-2.908 1.367-3.801.911-.893 2.187-1.34 3.828-1.34.583 0 1.203.082 1.86.246l-.083 2.598a6.544 6.544 0 0 0-1.271-.11c-1.586 0-2.379.816-2.379 2.448v1.312h3.008v2.461h-3.008v12.332h-3.322zm13.931-4.758l3.008-10.035h3.541l-5.879 17.035c-.902 2.489-2.433 3.733-4.593 3.733a5.951 5.951 0 0 1-1.6-.246v-2.57l.629.04c.838 0 1.47-.152 1.893-.458.424-.305.76-.818 1.005-1.538l.479-1.271-5.195-14.725h3.582l3.13 10.035z"/>
        <path fill="url(#a)" fill-rule="nonzero" d="M81.992 14.008c0-2.295.492-4.145 1.476-5.55.983-1.404 2.366-2.106 4.147-2.106.78 0 1.477.157 2.093.472.616.315 1.15.764 1.602 1.35V.263h3.23V21h-2.712l-.319-1.781c-.46.673-1.014 1.185-1.661 1.535-.647.35-1.4.525-2.26.525-1.763 0-3.137-.642-4.12-1.927-.984-1.285-1.476-2.973-1.476-5.065v-.279zm3.23.28c0 1.329.255 2.388.764 3.176.51.789 1.319 1.183 2.426 1.183.683 0 1.26-.146 1.735-.438.474-.293.862-.71 1.163-1.25v-6.274a3.4 3.4 0 0 0-1.17-1.242c-.478-.297-1.045-.446-1.701-.446-1.099 0-1.91.463-2.433 1.39-.522.925-.784 2.133-.784 3.621v.28zm12.345-.612c0-2.136.584-3.89 1.754-5.264 1.188-1.373 2.796-2.06 4.825-2.06 2.065 0 3.682.687 4.852 2.06 1.178 1.365 1.768 3.12 1.768 5.264v.28c0 2.161-.59 3.925-1.768 5.29-1.17 1.355-2.778 2.033-4.825 2.033-2.056 0-3.673-.682-4.852-2.047-1.17-1.365-1.754-3.123-1.754-5.277v-.279zm3.23.28c0 1.4.274 2.542.824 3.429.54.877 1.39 1.315 2.552 1.315 1.125 0 1.967-.438 2.525-1.315.567-.887.85-2.03.85-3.43v-.279c0-1.373-.283-2.503-.85-3.39-.558-.894-1.409-1.342-2.552-1.342-1.125 0-1.967.448-2.525 1.343-.55.895-.824 2.024-.824 3.39v.278zM119.68 18.7c.788 0 1.453-.232 1.993-.697.541-.466.811-1.048.811-1.748h2.925l.026.08c.044 1.346-.503 2.507-1.641 3.482-1.14.975-2.51 1.462-4.114 1.462-2.118 0-3.742-.682-4.872-2.047-1.13-1.365-1.695-3.092-1.695-5.184v-.465c0-2.082.565-3.808 1.695-5.177 1.13-1.37 2.754-2.054 4.872-2.054 1.728 0 3.13.503 4.207 1.509 1.076 1.006 1.597 2.284 1.561 3.835l-.026.08h-2.938c0-.79-.259-1.458-.777-2.008-.519-.55-1.194-.824-2.027-.824-1.214 0-2.074.44-2.579 1.323-.505.881-.758 1.987-.758 3.316v.465c0 1.356.253 2.47.758 3.343.505.873 1.365 1.31 2.579 1.31zm16.584-1.608c0-.496-.212-.908-.638-1.236-.425-.328-1.218-.616-2.38-.864-1.718-.363-3.019-.88-3.9-1.549-.882-.669-1.323-1.58-1.323-2.731 0-1.205.51-2.233 1.529-3.084 1.019-.85 2.361-1.276 4.027-1.276 1.755 0 3.148.432 4.18 1.296 1.033.864 1.527 1.934 1.483 3.21l-.027.08h-3.097c0-.594-.226-1.103-.678-1.529-.452-.425-1.072-.638-1.86-.638-.78 0-1.374.175-1.782.525-.408.35-.611.778-.611 1.283 0 .505.192.906.578 1.203.385.297 1.167.56 2.346.79 1.808.373 3.148.898 4.02 1.576.874.678 1.31 1.602 1.31 2.771 0 1.294-.534 2.344-1.602 3.15-1.067.807-2.474 1.21-4.22 1.21-1.87 0-3.345-.478-4.426-1.435-1.081-.957-1.595-2.056-1.542-3.297l.027-.08h3.004c.035.833.336 1.44.903 1.821.568.381 1.259.572 2.074.572.833 0 1.475-.16 1.927-.479.452-.319.678-.748.678-1.289z" transform="translate(56 6)"/>
        <g fill="url(#b)" fill-rule="nonzero">
            <path d="M28.589 14.135l-.014-.006c-.008-.003-.016-.006-.023-.013a.11.11 0 0 1-.028-.093l.773-4.726 3.625 3.626-3.77 1.604a.083.083 0 0 1-.033.006h-.015c-.005-.003-.01-.007-.02-.017a1.716 1.716 0 0 0-.495-.381zm5.258-.288l3.876 3.876c.805.806 1.208 1.208 1.355 1.674.022.069.04.138.054.209l-9.263-3.923a.728.728 0 0 0-.015-.006c-.037-.015-.08-.032-.08-.07 0-.038.044-.056.081-.071l.012-.005 3.98-1.684zm5.127 7.003c-.2.376-.59.766-1.25 1.427l-4.37 4.369-5.652-1.177-.03-.006c-.05-.008-.103-.017-.103-.062a1.706 1.706 0 0 0-.655-1.193c-.023-.023-.017-.059-.01-.092 0-.005 0-.01.002-.014l1.063-6.526.004-.022c.006-.05.015-.108.06-.108a1.73 1.73 0 0 0 1.16-.665c.009-.01.015-.021.027-.027.032-.015.07 0 .103.014l9.65 4.082zm-6.625 6.801l-7.186 7.186 1.23-7.56.002-.01c.001-.01.003-.02.006-.029.01-.024.036-.034.061-.044l.012-.005a1.85 1.85 0 0 0 .695-.517c.024-.028.053-.055.09-.06a.09.09 0 0 1 .029 0l5.06 1.04zm-8.707 8.707l-.81.81-8.955-12.942a.424.424 0 0 0-.01-.014c-.014-.019-.029-.038-.026-.06.001-.016.011-.03.022-.042l.01-.013c.027-.04.05-.08.075-.123l.02-.035.003-.003c.014-.024.027-.047.051-.06.021-.01.05-.006.073-.001l9.921 2.046a.164.164 0 0 1 .076.033c.013.013.016.027.019.043a1.757 1.757 0 0 0 1.028 1.175c.028.014.016.045.003.078a.238.238 0 0 0-.015.045c-.125.76-1.197 7.298-1.485 9.063zm-1.692 1.691c-.597.591-.949.904-1.347 1.03a2 2 0 0 1-1.206 0c-.466-.148-.869-.55-1.674-1.356L8.73 28.73l2.349-3.643c.011-.018.022-.034.04-.047.025-.018.061-.01.091 0a2.434 2.434 0 0 0 1.638-.083c.027-.01.054-.017.075.002a.19.19 0 0 1 .028.032L21.95 38.05zM7.863 27.863L5.8 25.8l4.074-1.738a.084.084 0 0 1 .033-.007c.034 0 .054.034.072.065a2.91 2.91 0 0 0 .13.184l.013.016c.012.017.004.034-.008.05l-2.25 3.493zm-2.976-2.976l-2.61-2.61c-.444-.444-.766-.766-.99-1.043l7.936 1.646a.84.84 0 0 0 .03.005c.049.008.103.017.103.063 0 .05-.059.073-.109.092l-.023.01-4.337 1.837zM.831 19.892a2 2 0 0 1 .09-.495c.148-.466.55-.868 1.356-1.674l3.34-3.34a2175.525 2175.525 0 0 0 4.626 6.687c.027.036.057.076.026.106-.146.161-.292.337-.395.528a.16.16 0 0 1-.05.062c-.013.008-.027.005-.042.002H9.78L.831 19.891zm5.68-6.403l4.491-4.491c.422.185 1.958.834 3.332 1.414 1.04.44 1.988.84 2.286.97.03.012.057.024.07.054.008.018.004.041 0 .06a2.003 2.003 0 0 0 .523 1.828c.03.03 0 .073-.026.11l-.014.021-4.56 7.063c-.012.02-.023.037-.043.05-.024.015-.058.008-.086.001a2.274 2.274 0 0 0-.543-.074c-.164 0-.342.03-.522.063h-.001c-.02.003-.038.007-.054-.005a.21.21 0 0 1-.045-.051l-4.808-7.013zm5.398-5.398l5.814-5.814c.805-.805 1.208-1.208 1.674-1.355a2 2 0 0 1 1.206 0c.466.147.869.55 1.674 1.355l1.26 1.26-4.135 6.404a.155.155 0 0 1-.041.048c-.025.017-.06.01-.09 0a2.097 2.097 0 0 0-1.92.37c-.027.028-.067.012-.101-.003-.54-.235-4.74-2.01-5.341-2.265zm12.506-3.676l3.818 3.818-.92 5.698v.015a.135.135 0 0 1-.008.038c-.01.02-.03.024-.05.03a1.83 1.83 0 0 0-.548.273.154.154 0 0 0-.02.017c-.011.012-.022.023-.04.025a.114.114 0 0 1-.043-.007l-5.818-2.472-.011-.005c-.037-.015-.081-.033-.081-.071a2.198 2.198 0 0 0-.31-.915c-.028-.046-.059-.094-.035-.141l4.066-6.303zm-3.932 8.606l5.454 2.31c.03.014.063.027.076.058a.106.106 0 0 1 0 .057c-.016.08-.03.171-.03.263v.153c0 .038-.039.054-.075.069l-.011.004c-.864.369-12.13 5.173-12.147 5.173-.017 0-.035 0-.052-.017-.03-.03 0-.072.027-.11a.76.76 0 0 0 .014-.02l4.482-6.94.008-.012c.026-.042.056-.089.104-.089l.045.007c.102.014.192.027.283.027.68 0 1.31-.331 1.69-.897a.16.16 0 0 1 .034-.04c.027-.02.067-.01.098.004zm-6.246 9.185l12.28-5.237s.018 0 .035.017c.067.067.124.112.179.154l.027.017c.025.014.05.03.052.056 0 .01 0 .016-.002.025L25.756 23.7l-.004.026c-.007.05-.014.107-.061.107a1.729 1.729 0 0 0-1.373.847l-.005.008c-.014.023-.027.045-.05.057-.021.01-.048.006-.07.001l-9.793-2.02c-.01-.002-.152-.519-.163-.52z"/>
        </g>
    </g>
</svg>
